<?xml version="1.0" standalone="no"?>
<!DOCTYPE svg PUBLIC "-//W3C//DTD SVG 20010904//EN"
 "http://www.w3.org/TR/2001/REC-SVG-20010904/DTD/svg10.dtd">
<svg version="1.0" xmlns="http://www.w3.org/2000/svg"
 width="512.000000pt" height="512.000000pt" viewBox="0 0 512.000000 512.000000"
 preserveAspectRatio="xMidYMid meet">

<g transform="translate(0.000000,512.000000) scale(0.100000,-0.100000)"
fill="#fd5101" stroke="none">
<path d="M4349 5101 c-45 -15 -62 -27 -591 -419 -1264 -937 -2666 -1977 -2938
-2178 -191 -142 -304 -233 -322 -259 -42 -60 -55 -136 -35 -206 29 -100 49
-114 551 -403 288 -166 477 -269 507 -276 145 -35 299 86 299 234 0 143 -37
180 -380 376 -146 83 -268 155 -271 158 -4 4 653 496 1460 1094 806 597 1467
1083 1469 1079 1 -4 -29 -281 -68 -617 -172 -1494 -303 -2633 -327 -2846 -10
-87 -20 -158 -24 -158 -4 0 -132 72 -285 161 -301 174 -342 190 -421 171 -27
-6 -176 -63 -333 -125 -157 -63 -286 -113 -288 -112 -1 1 145 258 326 571 682
1180 616 1060 620 1136 5 81 -8 122 -54 177 -54 62 -105 85 -189 85 -121 0
-172 -40 -272 -214 -34 -58 -321 -555 -638 -1105 -318 -550 -588 -1022 -601
-1050 -47 -100 -20 -226 64 -295 47 -39 131 -64 187 -57 22 4 303 110 623 237
l582 230 402 -232 c402 -232 402 -233 469 -236 37 -2 83 1 102 7 47 16 114 75
139 124 22 43 12 -32 257 2097 50 432 138 1197 196 1701 63 549 103 930 99
950 -15 77 -66 144 -138 181 -43 22 -136 32 -177 19z"/>
</g>
</svg>
