<?xml version="1.0" standalone="no"?>
<!DOCTYPE svg PUBLIC "-//W3C//DTD SVG 20010904//EN"
 "http://www.w3.org/TR/2001/REC-SVG-20010904/DTD/svg10.dtd">
<svg version="1.0" xmlns="http://www.w3.org/2000/svg"
 width="10242.000000pt" height="2133.000000pt" viewBox="0 0 10242.000000 2133.000000"
 preserveAspectRatio="xMidYMid meet">

<g transform="translate(0.000000,2133.000000) scale(0.100000,-0.100000)"
fill="#ffffff" stroke="none">
<path d="M15771 20410 c-92 -20 -213 -89 -461 -263 -257 -181 -968 -706 -3165
-2336 -423 -314 -831 -616 -905 -671 -264 -195 -1675 -1241 -2600 -1928 -261
-194 -536 -397 -610 -452 -187 -138 -292 -216 -1167 -865 -759 -563 -1651
-1225 -1913 -1419 -74 -55 -202 -150 -285 -211 -324 -240 -556 -412 -830 -615
-77 -57 -207 -154 -290 -215 -82 -61 -204 -151 -270 -200 -66 -49 -196 -146
-290 -215 -93 -69 -249 -184 -345 -255 -1069 -791 -1475 -1116 -1559 -1249
-132 -210 -176 -448 -126 -686 40 -188 92 -287 215 -410 163 -163 491 -374
1325 -855 94 -54 213 -123 265 -153 456 -264 983 -564 1270 -724 654 -364 886
-482 993 -505 98 -21 294 -12 396 17 352 100 628 397 688 740 20 112 12 324
-16 433 -56 214 -206 380 -556 614 -192 128 -424 267 -985 588 -414 237 -849
491 -881 516 -22 16 -23 19 -7 31 477 375 2019 1532 4038 3032 311 231 644
478 740 550 162 120 1471 1090 1710 1267 58 42 224 165 370 273 146 108 360
266 475 351 116 85 303 224 417 307 2147 1586 3341 2458 3363 2458 4 0 5 -33
1 -72 -23 -243 -140 -1314 -211 -1923 -19 -165 -37 -320 -40 -345 -3 -25 -25
-218 -50 -430 -24 -212 -67 -581 -95 -820 -27 -239 -57 -498 -65 -575 -9 -77
-31 -271 -50 -431 -19 -160 -39 -336 -45 -390 -6 -55 -31 -272 -55 -484 -67
-575 -121 -1045 -165 -1430 -22 -190 -50 -442 -64 -560 -14 -118 -50 -433 -81
-700 -92 -805 -153 -1333 -205 -1785 -28 -236 -61 -529 -75 -650 -14 -121 -41
-357 -60 -525 -19 -168 -55 -483 -80 -700 -25 -217 -68 -591 -95 -830 -28
-239 -55 -478 -61 -530 -31 -285 -75 -566 -90 -576 -5 -3 -60 23 -122 57 -189
105 -529 299 -797 454 -1141 659 -1360 765 -1592 765 -42 0 -108 -7 -146 -15
-128 -27 -571 -193 -1592 -598 -665 -264 -790 -311 -790 -295 0 6 13 34 29 62
90 160 283 500 486 856 214 374 310 540 552 960 49 85 152 263 228 395 76 132
203 353 283 490 79 138 186 322 237 410 51 88 148 257 217 375 68 118 196 339
283 490 87 151 222 385 300 520 682 1177 932 1636 966 1772 17 71 6 414 -16
492 -40 141 -134 286 -271 415 -179 170 -347 231 -635 231 -429 0 -623 -140
-950 -685 -116 -194 -125 -210 -529 -910 -178 -308 -412 -713 -520 -900 -108
-187 -268 -464 -355 -615 -87 -151 -222 -385 -300 -520 -230 -399 -550 -953
-747 -1295 -101 -176 -287 -498 -413 -715 -459 -795 -961 -1668 -1370 -2385
-500 -877 -550 -969 -584 -1070 -56 -169 -65 -317 -30 -488 43 -214 152 -402
304 -528 74 -62 251 -150 365 -183 105 -30 258 -49 319 -40 70 10 486 161
1116 404 88 34 216 83 285 110 69 27 177 68 240 93 132 51 786 309 1325 522
204 81 505 200 670 265 1008 398 967 382 990 372 20 -9 318 -180 630 -362 82
-48 1133 -654 1560 -900 471 -271 770 -430 885 -469 139 -47 483 -51 610 -6
180 63 435 296 529 483 42 83 72 277 170 1082 68 557 134 1117 216 1830 31
267 78 676 105 910 27 234 75 643 105 910 31 267 78 681 106 920 27 239 72
631 100 870 27 239 72 629 99 865 28 237 52 450 55 475 9 81 105 908 145 1255
22 187 56 477 75 645 19 168 48 424 65 570 17 146 53 461 81 700 27 239 72
629 99 865 28 237 52 450 55 475 3 25 25 218 49 430 42 357 77 667 206 1785
27 237 58 513 69 615 12 102 36 322 55 490 88 765 202 1872 226 2180 11 143
11 146 -14 233 -64 218 -200 404 -392 537 -151 105 -307 149 -549 155 -82 2
-170 0 -194 -5z"/>
<path d="M60380 12410 l0 -7520 1165 0 1165 0 0 7520 0 7520 -1165 0 -1165 0
0 -7520z"/>
<path d="M97666 19579 c-354 -37 -674 -187 -917 -429 -251 -250 -379 -547
-379 -880 0 -333 128 -630 379 -880 528 -526 1408 -585 2006 -134 150 112 311
305 393 469 172 347 165 783 -19 1123 -127 237 -350 452 -599 577 -256 129
-571 185 -864 154z"/>
<path d="M37330 15473 c-675 -35 -1265 -145 -1858 -347 -467 -159 -945 -393
-1356 -664 -162 -106 -406 -290 -556 -418 -158 -134 -484 -463 -610 -614 -698
-838 -1089 -1775 -1196 -2870 -21 -213 -24 -719 -5 -920 19 -205 58 -467 97
-649 304 -1415 1197 -2625 2514 -3408 1264 -751 2867 -1045 4450 -817 1816
261 3341 1223 4238 2674 50 80 87 148 84 152 -7 7 -1932 788 -1941 788 -3 -1
-38 -54 -78 -119 -431 -706 -1146 -1259 -1968 -1524 -484 -156 -1016 -225
-1529 -198 -645 34 -1177 169 -1695 431 -816 413 -1421 1097 -1712 1938 -44
128 -119 404 -119 440 l0 22 4704 0 4704 0 6 53 c33 268 45 728 27 997 -105
1555 -840 2915 -2082 3850 -300 226 -569 390 -924 565 -876 431 -1867 651
-2905 643 -129 -1 -260 -3 -290 -5z m565 -1843 c841 -53 1563 -330 2155 -828
112 -94 340 -325 426 -432 195 -240 355 -503 479 -784 56 -129 167 -448 180
-518 l7 -38 -3497 0 c-3325 0 -3496 1 -3491 18 3 9 21 69 40 132 206 680 640
1299 1214 1733 684 517 1577 774 2487 717z"/>
<path d="M51975 15469 c-1102 -70 -2109 -431 -2925 -1047 -194 -147 -371 -305
-564 -502 l-176 -182 0 771 0 771 -1165 0 -1165 0 0 -7225 0 -7225 1165 0
1165 0 0 2800 0 2800 218 -218 c223 -225 329 -318 537 -474 711 -534 1577
-878 2510 -997 303 -38 425 -45 785 -45 359 0 489 7 790 45 998 124 1940 499
2709 1078 382 286 762 664 1043 1036 616 815 974 1782 1049 2833 15 215 6 777
-15 972 -122 1096 -520 2041 -1212 2875 -137 166 -461 489 -629 628 -951 792
-2088 1231 -3380 1307 -196 11 -551 11 -740 -1z m315 -1970 c750 -60 1440
-329 2020 -788 129 -102 417 -392 518 -523 398 -513 617 -1056 698 -1728 20
-164 23 -554 6 -720 -46 -434 -152 -809 -333 -1174 -173 -349 -369 -617 -656
-897 -594 -581 -1368 -921 -2272 -1000 -201 -17 -675 -6 -871 20 -855 117
-1568 458 -2130 1021 -519 518 -829 1154 -937 1920 -22 158 -26 710 -5 860 48
349 119 624 232 899 231 563 591 1025 1085 1396 722 542 1654 793 2645 714z"/>
<path d="M88945 15473 c-888 -42 -1659 -212 -2350 -518 -1090 -482 -1871
-1291 -2205 -2283 -53 -158 -111 -376 -101 -379 42 -14 2294 -502 2300 -499 5
3 11 24 15 47 4 23 31 115 61 205 266 806 862 1336 1745 1553 279 68 525 95
875 95 542 0 964 -84 1350 -268 236 -113 395 -225 551 -389 191 -199 314 -432
370 -702 29 -137 27 -447 -3 -567 -89 -352 -323 -561 -746 -668 -175 -44 -257
-53 -1527 -170 -1314 -121 -1384 -128 -1677 -171 -891 -130 -1671 -383 -2243
-728 -750 -452 -1205 -1070 -1354 -1838 -41 -214 -51 -324 -51 -588 0 -266 10
-377 52 -585 185 -918 839 -1639 1839 -2025 768 -298 1768 -382 2714 -229 948
153 1792 531 2466 1104 133 114 361 341 469 469 l80 94 3 -772 2 -771 1165 0
1165 0 -3 3588 c-3 3915 1 3634 -57 3962 -318 1798 -1842 2906 -4165 3030
-170 9 -583 11 -740 3z m2620 -6382 c-106 -933 -765 -1802 -1733 -2285 -393
-196 -806 -316 -1282 -373 -202 -24 -625 -23 -805 1 -364 49 -672 154 -911
312 -103 68 -291 250 -351 339 -128 191 -190 383 -200 617 -16 361 101 655
359 904 276 265 681 444 1219 539 79 14 682 86 1339 160 1477 166 1433 161
1614 191 304 50 524 121 677 217 l84 52 3 -270 c2 -194 -2 -308 -13 -404z"/>
<path d="M29810 15450 c-717 -67 -1358 -278 -1948 -641 -159 -97 -389 -264
-540 -391 -122 -102 -422 -404 -517 -521 l-80 -98 -3 740 -2 741 -1165 0
-1165 0 0 -5195 0 -5195 1165 0 1165 0 3 3092 2 3093 22 127 c83 475 247 851
527 1202 400 504 1036 869 1766 1014 322 64 593 87 940 79 359 -9 680 -49
1043 -130 l147 -33 0 1012 0 1012 -52 12 c-80 17 -278 48 -423 66 -151 19
-733 28 -885 14z"/>
<path d="M64282 15168 c559 -1249 4694 -10500 4701 -10519 9 -22 -89 -246
-842 -1915 -468 -1039 -851 -1892 -851 -1897 0 -4 533 -7 1184 -7 l1183 0 31
68 c16 37 1475 3282 3242 7212 1767 3930 3214 7151 3217 7158 4 10 -234 12
-1183 10 l-1188 -3 -1745 -4122 c-959 -2268 -1747 -4123 -1750 -4123 -3 0
-796 1855 -1761 4123 l-1756 4122 -1266 3 -1266 2 50 -112z"/>
<path d="M96660 10085 l0 -5195 1165 0 1165 0 0 5195 0 5195 -1165 0 -1165 0
0 -5195z"/>
<path d="M76780 10105 l0 -945 2710 0 2710 0 0 945 0 945 -2710 0 -2710 0 0
-945z"/>
</g>
</svg>
