<?xml version="1.0" standalone="no"?>
<!DOCTYPE svg PUBLIC "-//W3C//DTD SVG 20010904//EN"
 "http://www.w3.org/TR/2001/REC-SVG-20010904/DTD/svg10.dtd">
<svg version="1.0" xmlns="http://www.w3.org/2000/svg"
 width="10242.000000pt" height="2133.000000pt" viewBox="0 0 10242.000000 2133.000000"
 preserveAspectRatio="xMidYMid meet">

<g transform="translate(0.000000,2133.000000) scale(0.100000,-0.100000)"
fill="#fd5101" stroke="none">
<path d="M16329 21306 c-65 -26 -95 -44 -239 -140 -262 -175 -570 -401 -4690
-3456 -4848 -3594 -8664 -6424 -9334 -6920 -1186 -878 -1634 -1234 -1727
-1372 -130 -191 -194 -443 -170 -665 20 -189 93 -383 186 -497 172 -210 605
-481 2485 -1556 1120 -640 1672 -934 1800 -959 251 -47 509 6 733 152 166 108
292 248 377 422 80 162 94 227 94 445 0 212 -18 308 -78 427 -143 285 -397
467 -1676 1200 -515 296 -929 538 -943 552 -11 11 49 61 383 316 1763 1348
10463 7795 11690 8663 l115 81 3 -31 c6 -59 -91 -927 -554 -4948 -510 -4433
-860 -7477 -989 -8610 -134 -1174 -170 -1458 -191 -1492 -9 -15 -221 102
-1029 567 -745 430 -851 489 -1110 620 -408 206 -549 242 -770 196 -143 -30
-611 -205 -1655 -619 -610 -242 -946 -372 -960 -372 -6 0 -10 2 -10 5 0 16
715 1267 1558 2725 1956 3384 2118 3669 2276 3990 45 91 87 189 94 218 17 77
16 379 -3 486 -31 175 -121 333 -284 497 -142 141 -273 215 -455 256 -106 24
-413 24 -525 0 -226 -49 -387 -163 -566 -402 -149 -199 -35 -5 -2297 -3925
-2022 -3504 -2889 -5014 -3096 -5395 -130 -236 -170 -393 -159 -614 20 -395
241 -723 587 -872 165 -71 394 -118 509 -104 149 18 947 323 3885 1485 945
373 1173 460 1190 452 12 -5 503 -287 1091 -627 1720 -993 1914 -1103 2129
-1206 191 -91 241 -102 486 -102 288 -1 347 13 508 120 94 62 252 209 317 294
61 78 111 174 129 244 51 203 142 951 590 4845 124 1075 392 3400 596 5165
857 7445 952 8281 1034 9185 42 455 42 452 12 553 -53 178 -141 328 -268 456
-135 137 -285 226 -446 267 -87 22 -114 24 -336 24 -229 0 -244 -2 -297 -24z"/>
<path d="M73680 12860 l0 -7780 1260 0 1260 0 0 7780 0 7780 -1260 0 -1260 0
0 -7780z"/>
<path d="M44330 16024 c-30 -2 -138 -11 -239 -19 -2200 -183 -4078 -1290
-5043 -2974 -373 -650 -589 -1338 -664 -2111 -21 -212 -23 -688 -5 -895 143
-1642 1019 -3058 2486 -4021 1425 -935 3321 -1315 5215 -1044 1878 269 3477
1219 4452 2645 98 144 172 265 166 271 -5 5 -2058 802 -2089 811 -11 3 -35
-26 -84 -103 -298 -467 -734 -889 -1225 -1184 -847 -509 -1905 -714 -2990
-580 -1231 153 -2261 746 -2879 1660 -179 263 -304 514 -408 815 -39 114 -113
379 -113 405 0 7 1856 10 5090 10 l5090 0 4 23 c22 101 46 478 46 712 0 1384
-525 2676 -1495 3674 -979 1008 -2319 1649 -3865 1850 -335 44 -491 53 -950
56 -245 1 -470 1 -500 -1z m895 -1919 c977 -101 1788 -467 2410 -1090 415
-414 714 -915 878 -1467 l35 -118 -3784 0 c-2081 0 -3784 2 -3784 4 0 2 20 67
45 143 397 1234 1426 2144 2763 2444 231 52 424 78 767 103 100 8 533 -5 670
-19z"/>
<path d="M62430 16023 c-1497 -88 -2826 -653 -3792 -1614 -98 -96 -180 -174
-183 -171 -3 3 -5 360 -5 794 l0 788 -1260 0 -1260 0 0 -7470 0 -7470 1260 0
1260 0 0 2893 c0 1592 2 2896 4 2898 3 3 89 -79 193 -181 421 -416 836 -711
1373 -979 337 -168 631 -282 989 -386 994 -286 2128 -329 3192 -119 812 159
1586 473 2244 909 644 427 1176 958 1588 1585 497 757 786 1614 857 2539 13
174 13 638 0 812 -91 1189 -536 2258 -1308 3148 -142 163 -451 466 -612 600
-1006 840 -2266 1327 -3674 1420 -143 10 -726 12 -866 4z m285 -2033 c1275
-93 2367 -690 3004 -1645 307 -461 492 -982 553 -1555 15 -149 15 -543 0 -690
-73 -679 -313 -1264 -740 -1800 -107 -134 -374 -398 -522 -516 -629 -501
-1403 -797 -2264 -864 -166 -13 -576 -13 -731 0 -600 51 -1121 192 -1607 436
-949 476 -1614 1286 -1853 2258 -69 281 -96 521 -96 836 0 498 91 944 281
1377 542 1235 1778 2047 3290 2162 156 12 525 12 685 1z"/>
<path d="M34325 16013 c-1214 -47 -2357 -531 -3197 -1352 -93 -90 -208 -209
-255 -263 -47 -54 -89 -98 -94 -98 -5 0 -9 319 -9 760 l0 760 -1260 0 -1260 0
0 -5370 0 -5370 1260 0 1260 0 0 3018 c0 1733 4 3091 10 3192 19 355 83 639
212 940 211 493 606 932 1108 1231 730 434 1680 605 2715 488 208 -23 464 -66
648 -107 l127 -29 0 1048 0 1048 -52 10 c-357 72 -833 109 -1213 94z"/>
<path d="M80030 15813 c0 -4 1157 -2482 2571 -5507 l2571 -5499 -71 -151 c-39
-83 -455 -965 -925 -1961 l-853 -1810 1281 -3 c704 -1 1283 1 1287 5 6 7 7002
14885 7016 14921 4 9 -256 12 -1278 12 l-1284 0 -1887 -4263 c-1038 -2344
-1890 -4261 -1894 -4260 -4 1 -861 1918 -1904 4260 l-1897 4258 -1366 3 c-752
1 -1367 -1 -1367 -5z"/>
</g>
</svg>
